# xmcd CD database file
#
# Track frame offsets:
#	225
#	11697
#	27643
#	40741
#	50723
#	64127
#	75770
#	88161
#	100111
#	113203
#	125397
#	136340
#	148758
#	159515
#	171645
#	185208
#	199869
#	212549
#	229851
#	243754
#	257123
#	268111
#	279360
#
# Disc length: 3896 seconds
#
# Revision: 0
# Processed by: cddbd v1.5.1PL0 Copyright (c) Steve Scherf et al.
# Submitted via: CDex 1.51
#
DISCID=510f3517
DTITLE=John Lee Hooker - MICOS
DYEAR=1900
DGENRE=Blues
TTITLE0=Boom Boom
TTITLE1=It Serves Me Right To Suffer
TTITLE2=Baby Lee
TTITLE3=Dimples
TTITLE4=Whisex And Wimmen
TTITLE5=I Love You Honey
TTITLE6=I'm In The Mood
TTITLE7=Littel Wheel
TTITLE8=Rock House Boogie
TTITLE9=I'm Mad Again
TTITLE10=No Shoes
TTITLE11=Trouble Blues
TTITLE12=Maudie
TTITLE13=Everybody's Rockin
TTITLE14=Love Blues
TTITLE15=Sugar Mama
TTITLE16=Hobo Blues
TTITLE17=Blues Before Sunrise
TTITLE18=Louise
TTITLE19=Stella Mae
TTITLE20=Littel Fine Woman
TTITLE21=You've Taken My Woman
TTITLE22=Unfriendly Woman
EXTD=
EXTT0=
EXTT1=
EXTT2=
EXTT3=
EXTT4=
EXTT5=
EXTT6=
EXTT7=
EXTT8=
EXTT9=
EXTT10=
EXTT11=
EXTT12=
EXTT13=
EXTT14=
EXTT15=
EXTT16=
EXTT17=
EXTT18=
EXTT19=
EXTT20=
EXTT21=
EXTT22=
PLAYORDER=
